<svg t="1586569294592" class="icon" viewBox="0 0 1024 1024" version="1.1" xmlns="http://www.w3.org/2000/svg" p-id="1442"
     width="128" height="128">
  <path
    d="M908.473599 381.920888c-1.766989 7.469955-6.127963 18.417888-12.245925 31.622808h0.131999l-0.699996 1.222993c-35.694784 76.492537-128.89322 226.512629-128.89322 226.512628s-0.118999-0.353998-0.485997-0.937994l-27.235835 47.484712h131.254206l-250.688483 333.878979 56.902656-227.128625H573.235629l35.886783-150.191091c-29.033824 7.011958-63.350616 16.654899-103.99337 29.73982 0 0-54.981667 32.249805-158.382041-62.035624 0 0-69.735578-61.533627-29.303823-76.909534 17.195896-6.53796 83.489494-14.83191 135.645179-21.893868 70.486573-9.542942 113.847311-14.595912 113.84731-14.595911s-217.315684 3.25498-268.870372-4.865971c-51.556688-8.119951-116.958292-94.275429-130.889207-170.018971 0 0-21.54687-41.579748 46.333719-21.893867s348.854888 76.631536 348.854888 76.631536S196.941908 266.338587 172.625055 238.964753c-24.311853-27.373834-71.556567-149.423095-65.409604-224.420641 0 0 2.664984-18.696887 21.803868-13.685917 0 0 270.148364 123.639251 454.874246 191.322841 184.724882 67.68259 345.329909 102.108382 324.580034 189.738852z"
    p-id="1443"></path>
</svg>
